<svg width="225" height="239" viewBox="0 0 225 239" fill="none" xmlns="http://www.w3.org/2000/svg">
<path d="M223.965 238.365H-1.34412C-1.86772 238.365 -1.86772 237.424 -1.34412 237.424H223.965C224.488 237.424 224.488 238.365 223.965 238.365Z" fill="#507586"/>
<path d="M32.4756 117.24H7.81641V237.894H32.4756V117.24Z" fill="#507586"/>
<path d="M49.32 117.24H32.4756V237.894H49.32V117.24Z" fill="white"/>
<path d="M49.3201 116.77H7.81647C7.5987 116.77 7.42139 116.982 7.42139 117.24V237.894C7.42139 238.153 7.59989 238.365 7.81647 238.365H49.3201C49.5379 238.365 49.7152 238.153 49.7152 237.894V117.24C49.7152 116.981 49.5379 116.77 49.3201 116.77ZM8.21274 117.711H32.0806V237.424H8.21274V117.711ZM48.925 237.424H32.8719V117.711H48.925V237.424Z" fill="#507586"/>
<path d="M50.6682 120.81H36.1907V129.194H50.6682V120.81Z" fill="#96BCCD"/>
<path d="M50.6682 129.665H36.1907C35.9729 129.665 35.7944 129.453 35.7944 129.194V120.81C35.7944 120.551 35.9729 120.339 36.1907 120.339H50.6682C50.886 120.339 51.0633 120.551 51.0633 120.81V129.194C51.0633 129.453 50.8848 129.665 50.6682 129.665ZM36.5858 128.724H50.272V121.281H36.5858V128.724Z" fill="#507586"/>
<path d="M50.6682 132.491H36.1907V140.874H50.6682V132.491Z" fill="#96BCCD"/>
<path d="M50.6682 141.346H36.1907C35.9729 141.346 35.7944 141.133 35.7944 140.874V132.491C35.7944 132.232 35.9729 132.019 36.1907 132.019H50.6682C50.886 132.019 51.0633 132.232 51.0633 132.491V140.874C51.0633 141.133 50.8848 141.346 50.6682 141.346ZM36.5858 140.405H50.272V132.962H36.5858V140.405Z" fill="#507586"/>
<path d="M50.6682 144.174H36.1907V152.558H50.6682V144.174Z" fill="#96BCCD"/>
<path d="M50.6682 153.025H36.1907C35.9729 153.025 35.7944 152.813 35.7944 152.554V144.17C35.7944 143.911 35.9729 143.7 36.1907 143.7H50.6682C50.886 143.7 51.0633 143.912 51.0633 144.17V152.554C51.0633 152.813 50.8848 153.025 50.6682 153.025ZM36.5858 152.084H50.272V144.641H36.5858V152.084Z" fill="#507586"/>
<path d="M50.6682 155.855H36.1907V164.239H50.6682V155.855Z" fill="#96BCCD"/>
<path d="M50.6682 164.706H36.1907C35.9729 164.706 35.7944 164.494 35.7944 164.235V155.851C35.7944 155.592 35.9729 155.38 36.1907 155.38H50.6682C50.886 155.38 51.0633 155.592 51.0633 155.851V164.235C51.0633 164.494 50.8848 164.706 50.6682 164.706ZM36.5858 163.765H50.272V156.322H36.5858V163.765Z" fill="#507586"/>
<path d="M50.6682 167.534H36.1907V175.918H50.6682V167.534Z" fill="#96BCCD"/>
<path d="M50.6682 176.389H36.1907C35.9729 176.389 35.7944 176.177 35.7944 175.918V167.534C35.7944 167.275 35.9729 167.063 36.1907 167.063H50.6682C50.886 167.063 51.0633 167.275 51.0633 167.534V175.918C51.0633 176.177 50.8848 176.389 50.6682 176.389ZM36.5858 175.449H50.272V168.006H36.5858V175.449Z" fill="#507586"/>
<path d="M50.6682 179.215H36.1907V187.599H50.6682V179.215Z" fill="#96BCCD"/>
<path d="M50.6682 188.07H36.1907C35.9729 188.07 35.7944 187.858 35.7944 187.599V179.215C35.7944 178.956 35.9729 178.744 36.1907 178.744H50.6682C50.886 178.744 51.0633 178.956 51.0633 179.215V187.599C51.0633 187.858 50.8848 188.07 50.6682 188.07ZM36.5858 187.129H50.272V179.686H36.5858V187.129Z" fill="#507586"/>
<path d="M50.6682 190.899H36.1907V199.283H50.6682V190.899Z" fill="#96BCCD"/>
<path d="M50.6682 199.75H36.1907C35.9729 199.75 35.7944 199.537 35.7944 199.279V190.895C35.7944 190.636 35.9729 190.423 36.1907 190.423H50.6682C50.886 190.423 51.0633 190.636 51.0633 190.895V199.279C51.0633 199.537 50.8848 199.75 50.6682 199.75ZM36.5858 198.809H50.272V191.366H36.5858V198.809Z" fill="#507586"/>
<path d="M50.6682 202.58H36.1907V210.964H50.6682V202.58Z" fill="#96BCCD"/>
<path d="M50.6682 211.431H36.1907C35.9729 211.431 35.7944 211.218 35.7944 210.959V202.575C35.7944 202.317 35.9729 202.104 36.1907 202.104H50.6682C50.886 202.104 51.0633 202.317 51.0633 202.575V210.959C51.0633 211.218 50.8848 211.431 50.6682 211.431ZM36.5858 210.49H50.272V203.047H36.5858V210.49Z" fill="#507586"/>
<path d="M50.6682 214.259H36.1907V222.643H50.6682V214.259Z" fill="#96BCCD"/>
<path d="M50.6682 223.114H36.1907C35.9729 223.114 35.7944 222.902 35.7944 222.643V214.259C35.7944 214 35.9729 213.788 36.1907 213.788H50.6682C50.886 213.788 51.0633 214 51.0633 214.259V222.643C51.0633 222.902 50.8848 223.114 50.6682 223.114ZM36.5858 222.173H50.272V214.73H36.5858V222.173Z" fill="#507586"/>
<path d="M50.6682 225.94H36.1907V234.324H50.6682V225.94Z" fill="#96BCCD"/>
<path d="M50.6682 234.795H36.1907C35.9729 234.795 35.7944 234.583 35.7944 234.324V225.94C35.7944 225.681 35.9729 225.469 36.1907 225.469H50.6682C50.886 225.469 51.0633 225.681 51.0633 225.94V234.324C51.0633 234.583 50.8848 234.795 50.6682 234.795ZM36.5858 233.854H50.272V226.411H36.5858V233.854Z" fill="#507586"/>
<path d="M29.2435 120.81H5.99683V129.194H29.2435V120.81Z" fill="#96BCCD"/>
<path d="M29.2435 129.665H5.99689C5.77912 129.665 5.60181 129.453 5.60181 129.194V120.81C5.60181 120.551 5.78031 120.339 5.99689 120.339H29.2435C29.4613 120.339 29.6386 120.551 29.6386 120.81V129.194C29.6386 129.453 29.4601 129.665 29.2435 129.665ZM6.39197 128.724H28.8473V121.281H6.39197V128.724Z" fill="#507586"/>
<path d="M29.2435 132.491H5.99683V140.874H29.2435V132.491Z" fill="#96BCCD"/>
<path d="M29.2435 141.346H5.99689C5.77912 141.346 5.60181 141.133 5.60181 140.874V132.491C5.60181 132.232 5.78031 132.019 5.99689 132.019H29.2435C29.4613 132.019 29.6386 132.232 29.6386 132.491V140.874C29.6386 141.133 29.4601 141.346 29.2435 141.346ZM6.39197 140.405H28.8473V132.962H6.39197V140.405Z" fill="#507586"/>
<path d="M29.2435 144.174H5.99683V152.558H29.2435V144.174Z" fill="#96BCCD"/>
<path d="M29.2435 153.025H5.99689C5.77912 153.025 5.60181 152.813 5.60181 152.554V144.17C5.60181 143.911 5.78031 143.7 5.99689 143.7H29.2435C29.4613 143.7 29.6386 143.912 29.6386 144.17V152.554C29.6386 152.813 29.4601 153.025 29.2435 153.025ZM6.39197 152.084H28.8473V144.641H6.39197V152.084Z" fill="#507586"/>
<path d="M29.2435 155.855H5.99683V164.239H29.2435V155.855Z" fill="#96BCCD"/>
<path d="M29.2435 164.706H5.99689C5.77912 164.706 5.60181 164.494 5.60181 164.235V155.851C5.60181 155.592 5.78031 155.38 5.99689 155.38H29.2435C29.4613 155.38 29.6386 155.592 29.6386 155.851V164.235C29.6386 164.494 29.4601 164.706 29.2435 164.706ZM6.39197 163.765H28.8473V156.322H6.39197V163.765Z" fill="#507586"/>
<path d="M29.2435 167.534H5.99683V175.918H29.2435V167.534Z" fill="#96BCCD"/>
<path d="M29.2435 176.389H5.99689C5.77912 176.389 5.60181 176.177 5.60181 175.918V167.534C5.60181 167.275 5.78031 167.063 5.99689 167.063H29.2435C29.4613 167.063 29.6386 167.275 29.6386 167.534V175.918C29.6386 176.177 29.4601 176.389 29.2435 176.389ZM6.39197 175.449H28.8473V168.006H6.39197V175.449Z" fill="#507586"/>
<path d="M29.2435 179.215H5.99683V187.599H29.2435V179.215Z" fill="#96BCCD"/>
<path d="M29.2435 188.07H5.99689C5.77912 188.07 5.60181 187.858 5.60181 187.599V179.215C5.60181 178.956 5.78031 178.744 5.99689 178.744H29.2435C29.4613 178.744 29.6386 178.956 29.6386 179.215V187.599C29.6386 187.858 29.4601 188.07 29.2435 188.07ZM6.39197 187.129H28.8473V179.686H6.39197V187.129Z" fill="#507586"/>
<path d="M29.2435 190.899H5.99683V199.283H29.2435V190.899Z" fill="#96BCCD"/>
<path d="M29.2435 199.75H5.99689C5.77912 199.75 5.60181 199.537 5.60181 199.279V190.895C5.60181 190.636 5.78031 190.423 5.99689 190.423H29.2435C29.4613 190.423 29.6386 190.636 29.6386 190.895V199.279C29.6386 199.537 29.4601 199.75 29.2435 199.75ZM6.39197 198.809H28.8473V191.366H6.39197V198.809Z" fill="#507586"/>
<path d="M29.2435 202.58H5.99683V210.964H29.2435V202.58Z" fill="#96BCCD"/>
<path d="M29.2435 211.431H5.99689C5.77912 211.431 5.60181 211.218 5.60181 210.959V202.575C5.60181 202.317 5.78031 202.104 5.99689 202.104H29.2435C29.4613 202.104 29.6386 202.317 29.6386 202.575V210.959C29.6386 211.218 29.4601 211.431 29.2435 211.431ZM6.39197 210.49H28.8473V203.047H6.39197V210.49Z" fill="#507586"/>
<path d="M29.2435 214.259H5.99683V222.643H29.2435V214.259Z" fill="#96BCCD"/>
<path d="M29.2435 223.114H5.99689C5.77912 223.114 5.60181 222.902 5.60181 222.643V214.259C5.60181 214 5.78031 213.788 5.99689 213.788H29.2435C29.4613 213.788 29.6386 214 29.6386 214.259V222.643C29.6386 222.902 29.4601 223.114 29.2435 223.114ZM6.39197 222.173H28.8473V214.73H6.39197V222.173Z" fill="#507586"/>
<path d="M29.2435 225.94H5.99683V234.324H29.2435V225.94Z" fill="#96BCCD"/>
<path d="M29.2435 234.795H5.99689C5.77912 234.795 5.60181 234.583 5.60181 234.324V225.94C5.60181 225.681 5.78031 225.469 5.99689 225.469H29.2435C29.4613 225.469 29.6386 225.681 29.6386 225.94V234.324C29.6386 234.583 29.4601 234.795 29.2435 234.795ZM6.39197 233.854H28.8473V226.411H6.39197V233.854Z" fill="#507586"/>
<path d="M64.6604 75.8467V84.5164L76.4378 83.1113V69.4565L64.6604 75.8467Z" fill="#507586"/>
<path d="M105.255 88.1276H67.4463V237.894H105.255V88.1276Z" fill="white"/>
<path d="M79.0489 91.6565H70.4131V234.365H79.0489V91.6565Z" fill="#96BCCD"/>
<path d="M79.0463 234.836H70.4105C70.1927 234.836 70.0154 234.624 70.0154 234.365V91.6565C70.0154 91.3976 70.1939 91.1853 70.4105 91.1853H79.0463C79.2641 91.1853 79.4426 91.3976 79.4426 91.6565V234.365C79.4426 234.624 79.2641 234.836 79.0463 234.836ZM70.8055 233.895H78.65V92.1263H70.8055V233.895Z" fill="#507586"/>
<path d="M90.6681 91.6565H82.0322V234.365H90.6681V91.6565Z" fill="#96BCCD"/>
<path d="M90.6656 234.836H82.0298C81.812 234.836 81.6335 234.624 81.6335 234.365V91.6565C81.6335 91.3976 81.812 91.1853 82.0298 91.1853H90.6656C90.8834 91.1853 91.0619 91.3976 91.0619 91.6565V234.365C91.0619 234.624 90.8834 234.836 90.6656 234.836ZM82.4249 233.895H90.2694V92.1263H82.4249V233.895Z" fill="#507586"/>
<path d="M102.286 91.6565H93.6501V234.365H102.286V91.6565Z" fill="#96BCCD"/>
<path d="M102.284 234.836H93.6478C93.43 234.836 93.2527 234.624 93.2527 234.365V91.6565C93.2527 91.3976 93.4312 91.1853 93.6478 91.1853H102.284C102.501 91.1853 102.68 91.3976 102.68 91.6565V234.365C102.68 234.624 102.501 234.836 102.284 234.836ZM94.0428 233.895H101.887V92.1263H94.0428V233.895Z" fill="#507586"/>
<path d="M56.8613 91.0708V237.894H67.4464V88.1276L56.8613 91.0708Z" fill="#507586"/>
<path d="M102.96 83.1113H69.7383V88.1275H102.96V83.1113Z" fill="#96BCCD"/>
<path d="M96.2572 69.4565H76.4377V83.1099H96.2572V69.4565Z" fill="white"/>
<path d="M60.6787 85.6187V90.0095L69.7382 88.1275V83.1113L60.6787 85.6187Z" fill="#507586"/>
<path d="M105.251 87.6563H103.355V83.1099C103.355 82.851 103.177 82.6387 102.959 82.6387H96.656V69.4552C96.656 69.1962 96.4787 68.984 96.2609 68.984C76.3046 68.984 76.4034 68.9543 76.2761 69.025L64.4998 75.4151C64.3594 75.4916 64.2678 75.6599 64.2678 75.8439V84.14L60.5931 85.1574C60.4122 85.207 60.2861 85.398 60.2861 85.6159V89.6331L56.7767 90.6094C56.5959 90.6589 56.4697 90.8514 56.4697 91.0679V237.891C56.4697 238.15 56.6482 238.362 56.8648 238.362H105.254C105.472 238.362 105.65 238.15 105.65 237.891V88.1275C105.65 87.8686 105.472 87.6563 105.254 87.6563H105.251ZM102.563 83.5811V87.6563H70.1357V83.5811H102.563ZM76.8354 69.9278H95.8635V82.6401H76.8354V69.9278ZM65.0556 76.1495L76.0405 70.1881V82.6387C69.8429 82.6387 69.8751 82.6274 69.618 82.6585L65.0544 83.9221V76.1481L65.0556 76.1495ZM61.0762 85.9923L69.3408 83.7056V87.6577C66.7489 87.6577 68.622 87.3167 61.0762 89.4166V85.9923ZM57.2575 91.4443L67.0464 88.7218V237.423H57.2575V91.4443ZM104.855 237.423H67.8426V88.5987H104.855V237.423Z" fill="#507586"/>
<path d="M155.748 103.06L148.326 81.2407H138.968L131.546 103.06H129.701V237.894H157.595V103.06H155.748Z" fill="white"/>
<path d="M138.324 107.066H132.844V113.582H138.324V107.066Z" fill="#96BCCD"/>
<path d="M138.324 114.053H132.844C132.626 114.053 132.448 113.841 132.448 113.583V107.067C132.448 106.808 132.626 106.596 132.844 106.596H138.324C138.541 106.596 138.72 106.808 138.72 107.067V113.583C138.72 113.842 138.541 114.053 138.324 114.053ZM133.239 113.112H137.927V107.537H133.239V113.112Z" fill="#507586"/>
<path d="M146.386 107.066H140.906V113.582H146.386V107.066Z" fill="#96BCCD"/>
<path d="M146.387 114.053H140.907C140.689 114.053 140.511 113.841 140.511 113.583V107.067C140.511 106.808 140.689 106.596 140.907 106.596H146.387C146.605 106.596 146.782 106.808 146.782 107.067V113.583C146.782 113.842 146.604 114.053 146.387 114.053ZM141.302 113.112H145.991V107.537H141.302V113.112Z" fill="#507586"/>
<path d="M154.448 107.066H148.968V113.582H154.448V107.066Z" fill="#96BCCD"/>
<path d="M154.45 114.053H148.97C148.752 114.053 148.574 113.841 148.574 113.583V107.067C148.574 106.808 148.753 106.596 148.97 106.596H154.45C154.667 106.596 154.846 106.808 154.846 107.067V113.583C154.846 113.842 154.667 114.053 154.45 114.053ZM149.365 113.112H154.053V107.537H149.365V113.112Z" fill="#507586"/>
<path d="M138.324 117.588H132.844V124.104H138.324V117.588Z" fill="#96BCCD"/>
<path d="M138.324 124.575H132.844C132.626 124.575 132.448 124.363 132.448 124.104V117.588C132.448 117.329 132.626 117.117 132.844 117.117H138.324C138.541 117.117 138.72 117.329 138.72 117.588V124.104C138.72 124.363 138.541 124.575 138.324 124.575ZM133.239 123.634H137.927V118.059H133.239V123.634Z" fill="#507586"/>
<path d="M146.386 117.588H140.906V124.104H146.386V117.588Z" fill="#96BCCD"/>
<path d="M146.387 124.575H140.907C140.689 124.575 140.511 124.363 140.511 124.104V117.588C140.511 117.329 140.689 117.117 140.907 117.117H146.387C146.605 117.117 146.782 117.329 146.782 117.588V124.104C146.782 124.363 146.604 124.575 146.387 124.575ZM141.302 123.634H145.991V118.059H141.302V123.634Z" fill="#507586"/>
<path d="M154.448 117.588H148.968V124.104H154.448V117.588Z" fill="#96BCCD"/>
<path d="M154.45 124.575H148.97C148.752 124.575 148.574 124.363 148.574 124.104V117.588C148.574 117.329 148.753 117.117 148.97 117.117H154.45C154.667 117.117 154.846 117.329 154.846 117.588V124.104C154.846 124.363 154.667 124.575 154.45 124.575ZM149.365 123.634H154.053V118.059H149.365V123.634Z" fill="#507586"/>
<path d="M138.324 128.108H132.844V134.624H138.324V128.108Z" fill="#96BCCD"/>
<path d="M138.324 135.096H132.844C132.626 135.096 132.448 134.883 132.448 134.624V128.108C132.448 127.849 132.626 127.639 132.844 127.639H138.324C138.541 127.639 138.72 127.851 138.72 128.108V134.624C138.72 134.883 138.541 135.096 138.324 135.096ZM133.239 134.155H137.927V128.58H133.239V134.155Z" fill="#507586"/>
<path d="M146.386 128.108H140.906V134.624H146.386V128.108Z" fill="#96BCCD"/>
<path d="M146.387 135.096H140.907C140.689 135.096 140.511 134.883 140.511 134.624V128.108C140.511 127.849 140.689 127.639 140.907 127.639H146.387C146.605 127.639 146.782 127.851 146.782 128.108V134.624C146.782 134.883 146.604 135.096 146.387 135.096ZM141.302 134.155H145.991V128.58H141.302V134.155Z" fill="#507586"/>
<path d="M154.448 128.108H148.968V134.624H154.448V128.108Z" fill="#96BCCD"/>
<path d="M154.45 135.096H148.97C148.752 135.096 148.574 134.883 148.574 134.624V128.108C148.574 127.849 148.753 127.639 148.97 127.639H154.45C154.667 127.639 154.846 127.851 154.846 128.108V134.624C154.846 134.883 154.667 135.096 154.45 135.096ZM149.365 134.155H154.053V128.58H149.365V134.155Z" fill="#507586"/>
<path d="M138.324 138.63H132.844V145.146H138.324V138.63Z" fill="#96BCCD"/>
<path d="M138.324 145.618H132.844C132.626 145.618 132.448 145.405 132.448 145.146V138.63C132.448 138.371 132.626 138.159 132.844 138.159H138.324C138.541 138.159 138.72 138.371 138.72 138.63V145.146C138.72 145.405 138.541 145.618 138.324 145.618ZM133.239 144.677H137.927V139.101H133.239V144.677Z" fill="#507586"/>
<path d="M146.386 138.63H140.906V145.146H146.386V138.63Z" fill="#96BCCD"/>
<path d="M146.387 145.618H140.907C140.689 145.618 140.511 145.405 140.511 145.146V138.63C140.511 138.371 140.689 138.159 140.907 138.159H146.387C146.605 138.159 146.782 138.371 146.782 138.63V145.146C146.782 145.405 146.604 145.618 146.387 145.618ZM141.302 144.677H145.991V139.101H141.302V144.677Z" fill="#507586"/>
<path d="M154.448 138.63H148.968V145.146H154.448V138.63Z" fill="#96BCCD"/>
<path d="M154.45 145.618H148.97C148.752 145.618 148.574 145.405 148.574 145.146V138.63C148.574 138.371 148.753 138.159 148.97 138.159H154.45C154.667 138.159 154.846 138.371 154.846 138.63V145.146C154.846 145.405 154.667 145.618 154.45 145.618ZM149.365 144.677H154.053V139.101H149.365V144.677Z" fill="#507586"/>
<path d="M138.324 149.152H132.844V155.668H138.324V149.152Z" fill="#96BCCD"/>
<path d="M138.324 156.139H132.844C132.626 156.139 132.448 155.927 132.448 155.668V149.152C132.448 148.893 132.626 148.681 132.844 148.681H138.324C138.541 148.681 138.72 148.893 138.72 149.152V155.668C138.72 155.927 138.541 156.139 138.324 156.139ZM133.239 155.199H137.927V149.623H133.239V155.199Z" fill="#507586"/>
<path d="M146.386 149.152H140.906V155.668H146.386V149.152Z" fill="#96BCCD"/>
<path d="M146.387 156.139H140.907C140.689 156.139 140.511 155.927 140.511 155.668V149.152C140.511 148.893 140.689 148.681 140.907 148.681H146.387C146.605 148.681 146.782 148.893 146.782 149.152V155.668C146.782 155.927 146.604 156.139 146.387 156.139ZM141.302 155.199H145.991V149.623H141.302V155.199Z" fill="#507586"/>
<path d="M154.448 149.152H148.968V155.668H154.448V149.152Z" fill="#96BCCD"/>
<path d="M154.45 156.139H148.97C148.752 156.139 148.574 155.927 148.574 155.668V149.152C148.574 148.893 148.753 148.681 148.97 148.681H154.45C154.667 148.681 154.846 148.893 154.846 149.152V155.668C154.846 155.927 154.667 156.139 154.45 156.139ZM149.365 155.199H154.053V149.623H149.365V155.199Z" fill="#507586"/>
<path d="M138.324 159.674H132.844V166.19H138.324V159.674Z" fill="#96BCCD"/>
<path d="M138.324 166.661H132.844C132.626 166.661 132.448 166.449 132.448 166.192V159.676C132.448 159.417 132.626 159.204 132.844 159.204H138.324C138.541 159.204 138.72 159.417 138.72 159.676V166.192C138.72 166.451 138.541 166.661 138.324 166.661ZM133.239 165.72H137.927V160.145H133.239V165.72Z" fill="#507586"/>
<path d="M146.386 159.674H140.906V166.19H146.386V159.674Z" fill="#96BCCD"/>
<path d="M146.387 166.661H140.907C140.689 166.661 140.511 166.449 140.511 166.192V159.676C140.511 159.417 140.689 159.204 140.907 159.204H146.387C146.605 159.204 146.782 159.417 146.782 159.676V166.192C146.782 166.451 146.604 166.661 146.387 166.661ZM141.302 165.72H145.991V160.145H141.302V165.72Z" fill="#507586"/>
<path d="M154.448 159.674H148.968V166.19H154.448V159.674Z" fill="#96BCCD"/>
<path d="M154.45 166.661H148.97C148.752 166.661 148.574 166.449 148.574 166.192V159.676C148.574 159.417 148.753 159.204 148.97 159.204H154.45C154.667 159.204 154.846 159.417 154.846 159.676V166.192C154.846 166.451 154.667 166.661 154.45 166.661ZM149.365 165.72H154.053V160.145H149.365V165.72Z" fill="#507586"/>
<path d="M138.324 170.196H132.844V176.712H138.324V170.196Z" fill="#96BCCD"/>
<path d="M138.324 177.183H132.844C132.626 177.183 132.448 176.971 132.448 176.712V170.196C132.448 169.937 132.626 169.725 132.844 169.725H138.324C138.541 169.725 138.72 169.937 138.72 170.196V176.712C138.72 176.971 138.541 177.183 138.324 177.183ZM133.239 176.242H137.927V170.667H133.239V176.242Z" fill="#507586"/>
<path d="M146.386 170.196H140.906V176.712H146.386V170.196Z" fill="#96BCCD"/>
<path d="M146.387 177.183H140.907C140.689 177.183 140.511 176.971 140.511 176.712V170.196C140.511 169.937 140.689 169.725 140.907 169.725H146.387C146.605 169.725 146.782 169.937 146.782 170.196V176.712C146.782 176.971 146.604 177.183 146.387 177.183ZM141.302 176.242H145.991V170.667H141.302V176.242Z" fill="#507586"/>
<path d="M154.448 170.196H148.968V176.712H154.448V170.196Z" fill="#96BCCD"/>
<path d="M154.45 177.183H148.97C148.752 177.183 148.574 176.971 148.574 176.712V170.196C148.574 169.937 148.753 169.725 148.97 169.725H154.45C154.667 169.725 154.846 169.937 154.846 170.196V176.712C154.846 176.971 154.667 177.183 154.45 177.183ZM149.365 176.242H154.053V170.667H149.365V176.242Z" fill="#507586"/>
<path d="M138.324 180.718H132.844V187.234H138.324V180.718Z" fill="#96BCCD"/>
<path d="M138.324 187.705H132.844C132.626 187.705 132.448 187.493 132.448 187.234V180.718C132.448 180.459 132.626 180.247 132.844 180.247H138.324C138.541 180.247 138.72 180.459 138.72 180.718V187.234C138.72 187.493 138.541 187.705 138.324 187.705ZM133.239 186.764H137.927V181.189H133.239V186.764Z" fill="#507586"/>
<path d="M146.386 180.718H140.906V187.234H146.386V180.718Z" fill="#96BCCD"/>
<path d="M146.387 187.705H140.907C140.689 187.705 140.511 187.493 140.511 187.234V180.718C140.511 180.459 140.689 180.247 140.907 180.247H146.387C146.605 180.247 146.782 180.459 146.782 180.718V187.234C146.782 187.493 146.604 187.705 146.387 187.705ZM141.302 186.764H145.991V181.189H141.302V186.764Z" fill="#507586"/>
<path d="M154.448 180.718H148.968V187.234H154.448V180.718Z" fill="#96BCCD"/>
<path d="M154.45 187.705H148.97C148.752 187.705 148.574 187.493 148.574 187.234V180.718C148.574 180.459 148.753 180.247 148.97 180.247H154.45C154.667 180.247 154.846 180.459 154.846 180.718V187.234C154.846 187.493 154.667 187.705 154.45 187.705ZM149.365 186.764H154.053V181.189H149.365V186.764Z" fill="#507586"/>
<path d="M138.324 191.24H132.844V197.756H138.324V191.24Z" fill="#96BCCD"/>
<path d="M138.324 198.227H132.844C132.626 198.227 132.448 198.015 132.448 197.756V191.24C132.448 190.981 132.626 190.769 132.844 190.769H138.324C138.541 190.769 138.72 190.981 138.72 191.24V197.756C138.72 198.015 138.541 198.227 138.324 198.227ZM133.239 197.286H137.927V191.711H133.239V197.286Z" fill="#507586"/>
<path d="M146.386 191.24H140.906V197.756H146.386V191.24Z" fill="#96BCCD"/>
<path d="M146.387 198.227H140.907C140.689 198.227 140.511 198.015 140.511 197.756V191.24C140.511 190.981 140.689 190.769 140.907 190.769H146.387C146.605 190.769 146.782 190.981 146.782 191.24V197.756C146.782 198.015 146.604 198.227 146.387 198.227ZM141.302 197.286H145.991V191.711H141.302V197.286Z" fill="#507586"/>
<path d="M154.448 191.24H148.968V197.756H154.448V191.24Z" fill="#96BCCD"/>
<path d="M154.45 198.227H148.97C148.752 198.227 148.574 198.015 148.574 197.756V191.24C148.574 190.981 148.753 190.769 148.97 190.769H154.45C154.667 190.769 154.846 190.981 154.846 191.24V197.756C154.846 198.015 154.667 198.227 154.45 198.227ZM149.365 197.286H154.053V191.711H149.365V197.286Z" fill="#507586"/>
<path d="M138.324 201.762H132.844V208.278H138.324V201.762Z" fill="#96BCCD"/>
<path d="M138.324 208.749H132.844C132.626 208.749 132.448 208.537 132.448 208.279V201.763C132.448 201.504 132.626 201.294 132.844 201.294H138.324C138.541 201.294 138.72 201.506 138.72 201.763V208.279C138.72 208.538 138.541 208.749 138.324 208.749ZM133.239 207.808H137.927V202.233H133.239V207.808Z" fill="#507586"/>
<path d="M146.386 201.762H140.906V208.278H146.386V201.762Z" fill="#96BCCD"/>
<path d="M146.387 208.749H140.907C140.689 208.749 140.511 208.537 140.511 208.279V201.763C140.511 201.504 140.689 201.294 140.907 201.294H146.387C146.605 201.294 146.782 201.506 146.782 201.763V208.279C146.782 208.538 146.604 208.749 146.387 208.749ZM141.302 207.808H145.991V202.233H141.302V207.808Z" fill="#507586"/>
<path d="M154.448 201.762H148.968V208.278H154.448V201.762Z" fill="#96BCCD"/>
<path d="M154.45 208.749H148.97C148.752 208.749 148.574 208.537 148.574 208.279V201.763C148.574 201.504 148.753 201.294 148.97 201.294H154.45C154.667 201.294 154.846 201.506 154.846 201.763V208.279C154.846 208.538 154.667 208.749 154.45 208.749ZM149.365 207.808H154.053V202.233H149.365V207.808Z" fill="#507586"/>
<path d="M138.324 212.284H132.844V218.8H138.324V212.284Z" fill="#96BCCD"/>
<path d="M138.324 219.271H132.844C132.626 219.271 132.448 219.059 132.448 218.8V212.284C132.448 212.025 132.626 211.813 132.844 211.813H138.324C138.541 211.813 138.72 212.025 138.72 212.284V218.8C138.72 219.059 138.541 219.271 138.324 219.271ZM133.239 218.33H137.927V212.755H133.239V218.33Z" fill="#507586"/>
<path d="M146.386 212.284H140.906V218.8H146.386V212.284Z" fill="#96BCCD"/>
<path d="M146.387 219.271H140.907C140.689 219.271 140.511 219.059 140.511 218.8V212.284C140.511 212.025 140.689 211.813 140.907 211.813H146.387C146.605 211.813 146.782 212.025 146.782 212.284V218.8C146.782 219.059 146.604 219.271 146.387 219.271ZM141.302 218.33H145.991V212.755H141.302V218.33Z" fill="#507586"/>
<path d="M154.448 212.284H148.968V218.8H154.448V212.284Z" fill="#96BCCD"/>
<path d="M154.45 219.271H148.97C148.752 219.271 148.574 219.059 148.574 218.8V212.284C148.574 212.025 148.753 211.813 148.97 211.813H154.45C154.667 211.813 154.846 212.025 154.846 212.284V218.8C154.846 219.059 154.667 219.271 154.45 219.271ZM149.365 218.33H154.053V212.755H149.365V218.33Z" fill="#507586"/>
<path d="M148.026 225.637H139.266V237.894H148.026V225.637Z" fill="#96BCCD"/>
<path d="M157.595 102.59H156.013L148.689 81.0666C148.629 80.8898 148.484 80.7723 148.322 80.7723H142.689L142.235 65.9516C142.231 65.7493 142.089 65.5865 141.919 65.5865H141.348C141.177 65.5865 141.038 65.7479 141.031 65.9516L140.578 80.7723H138.984C138.796 80.761 139.251 80.2205 131.331 86.3715C131.174 86.4932 131.269 86.3588 123.711 105.167L120.739 106.462C120.583 106.53 120.48 106.705 120.48 106.903V237.894C120.48 238.153 120.658 238.365 120.875 238.365H157.592C157.81 238.365 157.989 238.153 157.989 237.894V103.06C157.989 102.801 157.81 102.589 157.592 102.589L157.595 102.59ZM139.239 81.7147H148.06L155.163 102.59H132.137L139.239 81.7147ZM147.63 237.424H139.661V226.108H147.63V237.424ZM157.198 237.424H148.421V225.639C148.421 225.38 148.242 225.167 148.025 225.167H139.265C139.047 225.167 138.87 225.38 138.87 225.639V237.424H130.095V103.531H157.197V237.424H157.198Z" fill="#507586"/>
<path d="M165.886 163.588H109.611V237.894H165.886V163.588Z" fill="#4799BE"/>
<path d="M165.886 238.365H109.611C109.394 238.365 109.215 238.153 109.215 237.894V163.588C109.215 163.329 109.394 163.117 109.611 163.117H165.886C166.104 163.117 166.283 163.329 166.283 163.588V237.894C166.283 238.153 166.104 238.365 165.886 238.365ZM110.006 237.424H165.49V164.059H110.006V237.424Z" fill="#507586"/>
<path d="M125.115 163.588H109.611V237.894H125.115V163.588Z" fill="#507586"/>
<path d="M115.611 230.017H119.118C119.299 230.017 119.447 230.191 119.447 230.407V237.894H115.282V230.407C115.282 230.192 115.429 230.017 115.611 230.017Z" fill="#4799BE"/>
<path d="M143.965 167.873H128.875V175.992H143.965V167.873Z" fill="#96BCCD"/>
<path d="M117.363 167.873H112.332V175.992H117.363V167.873Z" fill="#96BCCD"/>
<path d="M122.396 167.873H117.364V175.992H122.396V167.873Z" fill="#96BCCD"/>
<path d="M117.363 180.05H112.332V188.169H117.363V180.05Z" fill="#96BCCD"/>
<path d="M122.396 180.05H117.364V188.169H122.396V180.05Z" fill="#96BCCD"/>
<path d="M117.363 192.228H112.332V200.347H117.363V192.228Z" fill="#96BCCD"/>
<path d="M122.396 192.228H117.364V200.347H122.396V192.228Z" fill="#96BCCD"/>
<path d="M117.363 204.405H112.332V212.524H117.363V204.405Z" fill="#96BCCD"/>
<path d="M122.396 204.405H117.364V212.524H122.396V204.405Z" fill="#96BCCD"/>
<path d="M117.363 216.583H112.332V224.702H117.363V216.583Z" fill="#96BCCD"/>
<path d="M122.396 216.583H117.364V224.702H122.396V216.583Z" fill="#96BCCD"/>
<path d="M161.888 167.873H146.798V175.992H161.888V167.873Z" fill="#96BCCD"/>
<path d="M143.965 180.05H128.875V188.169H143.965V180.05Z" fill="#96BCCD"/>
<path d="M161.888 180.05H146.798V188.169H161.888V180.05Z" fill="#96BCCD"/>
<path d="M143.965 192.228H128.875V200.347H143.965V192.228Z" fill="#96BCCD"/>
<path d="M161.888 192.228H146.798V200.347H161.888V192.228Z" fill="#96BCCD"/>
<path d="M143.965 204.405H128.875V212.524H143.965V204.405Z" fill="#96BCCD"/>
<path d="M161.888 204.405H146.798V212.524H161.888V204.405Z" fill="#96BCCD"/>
<path d="M143.965 216.583H128.875V224.702H143.965V216.583Z" fill="#96BCCD"/>
<path d="M161.888 216.583H146.798V224.702H161.888V216.583Z" fill="#96BCCD"/>
<path d="M119.447 238.365H115.279C115.062 238.365 114.883 238.153 114.883 237.894V230.407C114.883 229.933 115.207 229.545 115.608 229.545H119.117C119.516 229.545 119.842 229.93 119.842 230.407V237.894C119.842 238.153 119.663 238.365 119.447 238.365ZM115.676 237.424H119.052V230.486H115.676V237.424Z" fill="#507586"/>
<path d="M122.395 167.403H112.335C112.117 167.403 111.939 167.615 111.939 167.874V175.993C111.939 176.252 112.117 176.465 112.335 176.465H122.395C122.613 176.465 122.792 176.252 122.792 175.993V167.874C122.792 167.615 122.614 167.403 122.395 167.403ZM112.73 168.344H116.969V175.522H112.73V168.344ZM121.999 175.522H117.76V168.344H121.999V175.522Z" fill="#507586"/>
<path d="M122.395 179.58H112.335C112.117 179.58 111.939 179.793 111.939 180.05V188.169C111.939 188.428 112.117 188.641 112.335 188.641H122.395C122.613 188.641 122.792 188.428 122.792 188.169V180.05C122.792 179.791 122.614 179.58 122.395 179.58ZM112.73 180.521H116.969V187.7H112.73V180.521ZM121.999 187.7H117.76V180.521H121.999V187.7Z" fill="#507586"/>
<path d="M122.395 191.758H112.335C112.117 191.758 111.939 191.97 111.939 192.229V200.348C111.939 200.607 112.117 200.819 112.335 200.819H122.395C122.613 200.819 122.792 200.607 122.792 200.348V192.229C122.792 191.97 122.614 191.758 122.395 191.758ZM112.73 192.699H116.969V199.877H112.73V192.699ZM121.999 199.877H117.76V192.699H121.999V199.877Z" fill="#507586"/>
<path d="M122.395 203.935H112.335C112.117 203.935 111.939 204.148 111.939 204.405V212.524C111.939 212.783 112.117 212.994 112.335 212.994H122.395C122.613 212.994 122.792 212.782 122.792 212.524V204.405C122.792 204.146 122.614 203.935 122.395 203.935ZM112.73 204.876H116.969V212.055H112.73V204.876ZM121.999 212.055H117.76V204.876H121.999V212.055Z" fill="#507586"/>
<path d="M122.395 216.113H112.335C112.117 216.113 111.939 216.325 111.939 216.584V224.703C111.939 224.962 112.117 225.174 112.335 225.174H122.395C122.613 225.174 122.792 224.962 122.792 224.703V216.584C122.792 216.325 122.614 216.113 122.395 216.113ZM112.73 217.054H116.969V224.232H112.73V217.054ZM121.999 224.232H117.76V217.054H121.999V224.232Z" fill="#507586"/>
<path d="M128.875 176.463H143.965C144.183 176.463 144.362 176.251 144.362 175.992V167.873C144.362 167.614 144.183 167.401 143.965 167.401H128.875C128.657 167.401 128.48 167.614 128.48 167.873V175.992C128.48 176.251 128.658 176.463 128.875 176.463ZM143.57 175.522H139.332V168.344H143.57V175.522ZM138.54 175.522H134.301V168.344H138.54V175.522ZM129.271 168.344H133.51V175.522H129.271V168.344Z" fill="#507586"/>
<path d="M161.888 167.403H146.798C146.58 167.403 146.401 167.615 146.401 167.874V175.993C146.401 176.252 146.58 176.465 146.798 176.465H161.888C162.106 176.465 162.283 176.252 162.283 175.993V167.874C162.283 167.615 162.105 167.403 161.888 167.403ZM147.193 168.344H151.431V175.522H147.193V168.344ZM152.223 168.344H156.462V175.522H152.223V168.344ZM161.492 175.522H157.253V168.344H161.492V175.522Z" fill="#507586"/>
<path d="M128.875 188.641H143.965C144.183 188.641 144.362 188.428 144.362 188.169V180.05C144.362 179.791 144.183 179.58 143.965 179.58H128.875C128.657 179.58 128.48 179.793 128.48 180.05V188.169C128.48 188.428 128.658 188.641 128.875 188.641ZM143.57 187.7H139.332V180.521H143.57V187.7ZM138.54 187.7H134.301V180.521H138.54V187.7ZM129.271 180.521H133.51V187.7H129.271V180.521Z" fill="#507586"/>
<path d="M161.888 179.58H146.798C146.58 179.58 146.401 179.793 146.401 180.05V188.169C146.401 188.428 146.58 188.641 146.798 188.641H161.888C162.106 188.641 162.283 188.428 162.283 188.169V180.05C162.283 179.791 162.105 179.58 161.888 179.58ZM147.193 180.521H151.431V187.7H147.193V180.521ZM152.223 180.521H156.462V187.7H152.223V180.521ZM161.492 187.7H157.253V180.521H161.492V187.7Z" fill="#507586"/>
<path d="M128.875 200.818H143.965C144.183 200.818 144.362 200.606 144.362 200.347V192.228C144.362 191.969 144.183 191.756 143.965 191.756H128.875C128.657 191.756 128.48 191.969 128.48 192.228V200.347C128.48 200.606 128.658 200.818 128.875 200.818ZM143.57 199.877H139.332V192.699H143.57V199.877ZM138.54 199.877H134.301V192.699H138.54V199.877ZM129.271 192.699H133.51V199.877H129.271V192.699Z" fill="#507586"/>
<path d="M161.888 191.758H146.798C146.58 191.758 146.401 191.97 146.401 192.229V200.348C146.401 200.607 146.58 200.819 146.798 200.819H161.888C162.106 200.819 162.283 200.607 162.283 200.348V192.229C162.283 191.97 162.105 191.758 161.888 191.758ZM147.193 192.699H151.431V199.877H147.193V192.699ZM152.223 192.699H156.462V199.877H152.223V192.699ZM161.492 199.877H157.253V192.699H161.492V199.877Z" fill="#507586"/>
<path d="M128.875 212.996H143.965C144.183 212.996 144.362 212.783 144.362 212.526V204.407C144.362 204.148 144.183 203.937 143.965 203.937H128.875C128.657 203.937 128.48 204.149 128.48 204.407V212.526C128.48 212.785 128.658 212.996 128.875 212.996ZM143.57 212.055H139.332V204.876H143.57V212.055ZM138.54 212.055H134.301V204.876H138.54V212.055ZM129.271 204.876H133.51V212.055H129.271V204.876Z" fill="#507586"/>
<path d="M161.888 203.935H146.798C146.58 203.935 146.401 204.148 146.401 204.405V212.524C146.401 212.783 146.58 212.994 146.798 212.994H161.888C162.106 212.994 162.283 212.782 162.283 212.524V204.405C162.283 204.146 162.105 203.935 161.888 203.935ZM147.193 204.876H151.431V212.055H147.193V204.876ZM152.223 204.876H156.462V212.055H152.223V204.876ZM161.492 212.055H157.253V204.876H161.492V212.055Z" fill="#507586"/>
<path d="M144.36 224.702V216.583C144.36 216.324 144.182 216.111 143.964 216.111H128.874C128.656 216.111 128.479 216.324 128.479 216.583V224.702C128.479 224.961 128.657 225.173 128.874 225.173H143.964C144.182 225.173 144.36 224.961 144.36 224.702ZM129.27 217.054H133.509V224.232H129.27V217.054ZM134.3 217.054H138.539V224.232H134.3V217.054ZM143.569 224.232H139.33V217.054H143.569V224.232Z" fill="#507586"/>
<path d="M161.888 216.113H146.798C146.58 216.113 146.401 216.325 146.401 216.584V224.703C146.401 224.962 146.58 225.174 146.798 225.174H161.888C162.106 225.174 162.283 224.962 162.283 224.703V216.584C162.283 216.325 162.105 216.113 161.888 216.113ZM147.193 217.054H151.431V224.232H147.193V217.054ZM152.223 217.054H156.462V224.232H152.223V217.054ZM161.492 224.232H157.253V217.054H161.492V224.232Z" fill="#507586"/>
<path d="M148.812 230.017H142.383C142.106 230.017 141.883 230.284 141.883 230.611V237.895H149.312V230.611C149.312 230.281 149.087 230.017 148.812 230.017Z" fill="#507586"/>
<path d="M203.137 41.5555C207.044 41.5555 210.211 45.2473 210.211 49.8007C210.211 54.3542 207.044 58.0459 203.137 58.0459C199.231 58.0459 196.064 54.3542 196.064 49.8007C196.064 45.2473 199.231 41.5555 203.137 41.5555Z" fill="#F3DB84"/>
<path d="M215.404 237.894V78.2379L205.702 66.2869V237.894H215.404Z" fill="white"/>
<path d="M215.688 77.9112L205.972 65.9388C205.768 65.7195 205.947 65.6106 170.906 68.9386C170.701 68.9585 170.54 69.1622 170.54 69.4098V237.894C170.54 238.153 170.718 238.365 170.936 238.365H215.405C215.623 238.365 215.8 238.153 215.8 237.894L215.688 77.9112ZM215.007 237.423H206.097V67.4515L215.007 78.4291V237.423Z" fill="#507586"/>
<path d="M173.407 234.954V72.1394L203.229 69.4565V234.954H173.407Z" fill="#96BCCD"/>
<path d="M203.498 69.1127C203.296 68.8933 203.455 68.8099 173.378 71.6682C173.173 71.688 173.011 71.8917 173.011 72.1394V234.953C173.011 235.212 173.19 235.425 173.408 235.425H203.228C203.445 235.425 203.624 235.212 203.624 234.953L203.498 69.1127ZM188.713 71.2338L195.624 70.6126V234.482H188.713V71.2338ZM187.922 234.482H181.012V71.9257L187.922 71.3045V234.482ZM173.803 72.5738L180.22 71.9979V234.484H173.803V72.5738ZM202.831 234.482H196.414V70.5418L202.831 69.9659V234.482Z" fill="#507586"/>
<path d="M63.6548 29.5139C64.4343 29.5139 65.0245 28.6932 64.9305 27.7961C64.207 20.8456 58.8936 17.8798 51.0718 19.4179C51.881 11.0043 45.8167 6.91917 40.3582 9.5638C40.1559 0.189427 31.2618 -1.97269 28.6331 6.19893C21.7609 -1.49159 12.4098 5.64001 15.0909 16.053C6.30395 10.71 -1.2942 19.9244 1.97592 28.6069C2.18298 29.1573 2.64351 29.5125 3.15045 29.5125L63.6548 29.5139Z" fill="white"/>
<path d="M63.6548 29.9837H3.14807C2.48524 29.9837 1.8831 29.5196 1.61178 28.7993C-1.64406 20.1495 5.48881 10.6095 14.4888 15.1984C12.5586 5.02451 21.5788 -1.61042 28.482 5.40515C31.382 -2.20755 40.0666 -0.34824 40.7211 8.89878C46.3475 6.59092 51.9714 10.952 51.5085 18.859C58.2558 17.6803 64.4914 19.8396 65.3208 27.7367C65.447 28.9324 64.6592 29.9837 63.6548 29.9837ZM2.33411 28.4159C2.47691 28.7951 2.79702 29.0427 3.14569 29.0427H63.6489C64.1927 29.0427 64.5973 28.4711 64.5342 27.8513C63.7619 20.3023 57.5644 18.6241 51.1301 19.8792C50.8623 19.9315 50.6457 19.6599 50.6731 19.3613C51.3907 11.392 45.7822 7.4385 40.501 9.99541C40.2416 10.1213 39.9631 9.89777 39.9572 9.57232C39.7906 0.718669 31.4677 -1.33874 28.9985 6.36452C28.8985 6.67723 28.5605 6.76921 28.3582 6.54139C21.8097 -0.813776 12.8763 5.95417 15.4634 15.9158C15.5681 16.3176 15.2123 16.6558 14.9041 16.4719C6.5015 11.4161 -0.817012 20.0589 2.33292 28.4173L2.33411 28.4159Z" fill="#507586"/>
<path d="M104.923 44.3431C105.104 44.9543 105.591 45.3661 106.134 45.3661H177.85C178.382 45.3661 178.859 44.9756 179.049 44.3841C182.783 32.7952 173.421 24.3222 164.058 29.4742C166.989 21.1073 162.383 11.6537 152.966 18.1231C151.291 4.43723 137.061 6.67859 136.644 18.1231C129.111 11.9028 119.485 18.3736 121.159 30.3147C111.606 28.8658 101.561 32.9424 104.923 44.3416V44.3431Z" fill="white"/>
<path d="M177.847 45.8373H106.135C105.423 45.8373 104.786 45.2996 104.55 44.4987C101.212 33.1561 110.678 28.4625 120.693 29.7771C119.406 18.0821 128.707 11.7118 136.301 17.2968C137.348 6.1763 151.208 4.21086 153.264 17.3916C157.11 14.9394 160.604 14.9012 162.914 17.3123C165.242 19.7419 165.944 24.2727 164.747 28.6168C174.203 24.243 183.15 32.9778 179.419 44.5553C179.172 45.3223 178.541 45.8373 177.848 45.8373H177.847ZM117.46 30.4959C109.233 30.4959 102.541 34.8032 105.294 44.1874C105.418 44.6105 105.757 44.8964 106.132 44.8964H177.847C178.214 44.8964 178.547 44.6233 178.678 44.2172C182.284 33.0471 173.261 24.9067 164.221 29.9016C163.895 30.0813 163.552 29.6879 163.689 29.2931C165.176 25.0114 164.653 20.3772 162.39 18.0156C160.221 15.7516 156.937 15.9172 153.161 18.5307C152.919 18.6976 152.61 18.5165 152.569 18.1896C150.938 5.09241 137.468 7.25453 137.034 18.143C137.02 18.5123 136.669 18.7174 136.413 18.508C129.157 12.548 119.953 18.6538 121.542 30.2355C121.563 30.3827 121.525 30.5313 121.437 30.6388C121.116 31.0251 120.748 30.4973 117.46 30.4973V30.4959Z" fill="#507586"/>
</svg>
