<svg width="556" height="713" viewBox="0 0 556 713" fill="none" xmlns="http://www.w3.org/2000/svg">
<g opacity="0.9">
<path d="M538.961 700.082H-65.9642C-67.37 700.082 -67.37 697.552 -65.9642 697.552H538.961C540.367 697.552 540.367 700.082 538.961 700.082Z" fill="#507586"/>
<path d="M24.8376 374.37H-41.3691V698.815H24.8376V374.37Z" fill="#507586"/>
<path d="M70.0629 374.37H24.8376V698.815H70.0629V374.37Z" fill="white"/>
<path d="M70.0628 373.107H-41.3692C-41.9539 373.107 -42.4299 373.678 -42.4299 374.37V698.815C-42.4299 699.511 -41.9507 700.082 -41.3692 700.082H70.0628C70.6475 700.082 71.1236 699.511 71.1236 698.815V374.37C71.1236 373.674 70.6475 373.107 70.0628 373.107ZM-40.3053 375.637H23.7768V697.552H-40.3053V375.637ZM69.0021 697.552H25.9015V375.637H69.0021V697.552Z" fill="#507586"/>
<path d="M73.6827 383.97H34.8124V406.515H73.6827V383.97Z" fill="#96BCCD"/>
<path d="M73.6828 407.782H34.8125C34.2278 407.782 33.7485 407.211 33.7485 406.515V383.97C33.7485 383.274 34.2278 382.703 34.8125 382.703H73.6828C74.2675 382.703 74.7436 383.274 74.7436 383.97V406.515C74.7436 407.211 74.2643 407.782 73.6828 407.782ZM35.8732 405.252H72.6189V385.237H35.8732V405.252Z" fill="#507586"/>
<path d="M73.6827 415.38H34.8124V437.925H73.6827V415.38Z" fill="#96BCCD"/>
<path d="M73.6828 439.192H34.8125C34.2278 439.192 33.7485 438.621 33.7485 437.925V415.38C33.7485 414.684 34.2278 414.113 34.8125 414.113H73.6828C74.2675 414.113 74.7436 414.684 74.7436 415.38V437.925C74.7436 438.621 74.2643 439.192 73.6828 439.192ZM35.8732 436.662H72.6189V416.648H35.8732V436.662Z" fill="#507586"/>
<path d="M73.6827 446.798H34.8124V469.343H73.6827V446.798Z" fill="#96BCCD"/>
<path d="M73.6828 470.599H34.8125C34.2278 470.599 33.7485 470.028 33.7485 469.332V446.787C33.7485 446.091 34.2278 445.524 34.8125 445.524H73.6828C74.2675 445.524 74.7436 446.094 74.7436 446.787V469.332C74.7436 470.028 74.2643 470.599 73.6828 470.599ZM35.8732 468.068H72.6189V448.054H35.8732V468.068Z" fill="#507586"/>
<path d="M73.6827 478.209H34.8124V500.753H73.6827V478.209Z" fill="#96BCCD"/>
<path d="M73.6828 502.009H34.8125C34.2278 502.009 33.7485 501.438 33.7485 500.742V478.197C33.7485 477.501 34.2278 476.93 34.8125 476.93H73.6828C74.2675 476.93 74.7436 477.501 74.7436 478.197V500.742C74.7436 501.438 74.2643 502.009 73.6828 502.009ZM35.8732 499.479H72.6189V479.464H35.8732V499.479Z" fill="#507586"/>
<path d="M73.6827 509.615H34.8124V532.16H73.6827V509.615Z" fill="#96BCCD"/>
<path d="M73.6828 533.427H34.8125C34.2278 533.427 33.7485 532.856 33.7485 532.16V509.615C33.7485 508.919 34.2278 508.348 34.8125 508.348H73.6828C74.2675 508.348 74.7436 508.919 74.7436 509.615V532.16C74.7436 532.856 74.2643 533.427 73.6828 533.427ZM35.8732 530.896H72.6189V510.882H35.8732V530.896Z" fill="#507586"/>
<path d="M73.6827 541.025H34.8124V563.57H73.6827V541.025Z" fill="#96BCCD"/>
<path d="M73.6828 564.837H34.8125C34.2278 564.837 33.7485 564.266 33.7485 563.57V541.025C33.7485 540.329 34.2278 539.758 34.8125 539.758H73.6828C74.2675 539.758 74.7436 540.329 74.7436 541.025V563.57C74.7436 564.266 74.2643 564.837 73.6828 564.837ZM35.8732 562.307H72.6189V542.292H35.8732V562.307Z" fill="#507586"/>
<path d="M73.6827 572.443H34.8124V594.988H73.6827V572.443Z" fill="#96BCCD"/>
<path d="M73.6828 596.244H34.8125C34.2278 596.244 33.7485 595.673 33.7485 594.977V572.432C33.7485 571.736 34.2278 571.165 34.8125 571.165H73.6828C74.2675 571.165 74.7436 571.736 74.7436 572.432V594.977C74.7436 595.673 74.2643 596.244 73.6828 596.244ZM35.8732 593.713H72.6189V573.699H35.8732V593.713Z" fill="#507586"/>
<path d="M73.6827 603.854H34.8124V626.398H73.6827V603.854Z" fill="#96BCCD"/>
<path d="M73.6828 627.654H34.8125C34.2278 627.654 33.7485 627.083 33.7485 626.387V603.842C33.7485 603.146 34.2278 602.575 34.8125 602.575H73.6828C74.2675 602.575 74.7436 603.146 74.7436 603.842V626.387C74.7436 627.083 74.2643 627.654 73.6828 627.654ZM35.8732 625.123H72.6189V605.109H35.8732V625.123Z" fill="#507586"/>
<path d="M73.6827 635.26H34.8124V657.805H73.6827V635.26Z" fill="#96BCCD"/>
<path d="M73.6828 659.072H34.8125C34.2278 659.072 33.7485 658.501 33.7485 657.805V635.26C33.7485 634.564 34.2278 633.993 34.8125 633.993H73.6828C74.2675 633.993 74.7436 634.564 74.7436 635.26V657.805C74.7436 658.501 74.2643 659.072 73.6828 659.072ZM35.8732 656.541H72.6189V636.527H35.8732V656.541Z" fill="#507586"/>
<path d="M73.6827 666.67H34.8124V689.215H73.6827V666.67Z" fill="#96BCCD"/>
<path d="M73.6828 690.482H34.8125C34.2278 690.482 33.7485 689.911 33.7485 689.215V666.67C33.7485 665.974 34.2278 665.403 34.8125 665.403H73.6828C74.2675 665.403 74.7436 665.974 74.7436 666.67V689.215C74.7436 689.911 74.2643 690.482 73.6828 690.482ZM35.8732 687.952H72.6189V667.937H35.8732V687.952Z" fill="#507586"/>
<path d="M16.16 383.97H-46.2543V406.515H16.16V383.97Z" fill="#96BCCD"/>
<path d="M16.16 407.782H-46.2543C-46.839 407.782 -47.3151 407.211 -47.3151 406.515V383.97C-47.3151 383.274 -46.8358 382.703 -46.2543 382.703H16.16C16.7447 382.703 17.2207 383.274 17.2207 383.97V406.515C17.2207 407.211 16.7415 407.782 16.16 407.782ZM-45.1936 405.252H15.0961V385.237H-45.1936V405.252Z" fill="#507586"/>
<path d="M16.16 415.38H-46.2543V437.925H16.16V415.38Z" fill="#96BCCD"/>
<path d="M16.16 439.192H-46.2543C-46.839 439.192 -47.3151 438.621 -47.3151 437.925V415.38C-47.3151 414.684 -46.8358 414.113 -46.2543 414.113H16.16C16.7447 414.113 17.2207 414.684 17.2207 415.38V437.925C17.2207 438.621 16.7415 439.192 16.16 439.192ZM-45.1936 436.662H15.0961V416.648H-45.1936V436.662Z" fill="#507586"/>
<path d="M16.16 446.798H-46.2543V469.343H16.16V446.798Z" fill="#96BCCD"/>
<path d="M16.16 470.599H-46.2543C-46.839 470.599 -47.3151 470.028 -47.3151 469.332V446.787C-47.3151 446.091 -46.8358 445.524 -46.2543 445.524H16.16C16.7447 445.524 17.2207 446.094 17.2207 446.787V469.332C17.2207 470.028 16.7415 470.599 16.16 470.599ZM-45.1936 468.068H15.0961V448.054H-45.1936V468.068Z" fill="#507586"/>
<path d="M16.16 478.209H-46.2543V500.753H16.16V478.209Z" fill="#96BCCD"/>
<path d="M16.16 502.009H-46.2543C-46.839 502.009 -47.3151 501.438 -47.3151 500.742V478.197C-47.3151 477.501 -46.8358 476.93 -46.2543 476.93H16.16C16.7447 476.93 17.2207 477.501 17.2207 478.197V500.742C17.2207 501.438 16.7415 502.009 16.16 502.009ZM-45.1936 499.479H15.0961V479.464H-45.1936V499.479Z" fill="#507586"/>
<path d="M16.16 509.615H-46.2543V532.16H16.16V509.615Z" fill="#96BCCD"/>
<path d="M16.16 533.427H-46.2543C-46.839 533.427 -47.3151 532.856 -47.3151 532.16V509.615C-47.3151 508.919 -46.8358 508.348 -46.2543 508.348H16.16C16.7447 508.348 17.2207 508.919 17.2207 509.615V532.16C17.2207 532.856 16.7415 533.427 16.16 533.427ZM-45.1936 530.896H15.0961V510.882H-45.1936V530.896Z" fill="#507586"/>
<path d="M16.16 541.025H-46.2543V563.57H16.16V541.025Z" fill="#96BCCD"/>
<path d="M16.16 564.837H-46.2543C-46.839 564.837 -47.3151 564.266 -47.3151 563.57V541.025C-47.3151 540.329 -46.8358 539.758 -46.2543 539.758H16.16C16.7447 539.758 17.2207 540.329 17.2207 541.025V563.57C17.2207 564.266 16.7415 564.837 16.16 564.837ZM-45.1936 562.307H15.0961V542.292H-45.1936V562.307Z" fill="#507586"/>
<path d="M16.16 572.443H-46.2543V594.988H16.16V572.443Z" fill="#96BCCD"/>
<path d="M16.16 596.244H-46.2543C-46.839 596.244 -47.3151 595.673 -47.3151 594.977V572.432C-47.3151 571.736 -46.8358 571.165 -46.2543 571.165H16.16C16.7447 571.165 17.2207 571.736 17.2207 572.432V594.977C17.2207 595.673 16.7415 596.244 16.16 596.244ZM-45.1936 593.713H15.0961V573.699H-45.1936V593.713Z" fill="#507586"/>
<path d="M16.16 603.854H-46.2543V626.398H16.16V603.854Z" fill="#96BCCD"/>
<path d="M16.16 627.654H-46.2543C-46.839 627.654 -47.3151 627.083 -47.3151 626.387V603.842C-47.3151 603.146 -46.8358 602.575 -46.2543 602.575H16.16C16.7447 602.575 17.2207 603.146 17.2207 603.842V626.387C17.2207 627.083 16.7415 627.654 16.16 627.654ZM-45.1936 625.123H15.0961V605.109H-45.1936V625.123Z" fill="#507586"/>
<path d="M16.16 635.26H-46.2543V657.805H16.16V635.26Z" fill="#96BCCD"/>
<path d="M16.16 659.072H-46.2543C-46.839 659.072 -47.3151 658.501 -47.3151 657.805V635.26C-47.3151 634.564 -46.8358 633.993 -46.2543 633.993H16.16C16.7447 633.993 17.2207 634.564 17.2207 635.26V657.805C17.2207 658.501 16.7415 659.072 16.16 659.072ZM-45.1936 656.541H15.0961V636.527H-45.1936V656.541Z" fill="#507586"/>
<path d="M16.16 666.67H-46.2543V689.215H16.16V666.67Z" fill="#96BCCD"/>
<path d="M16.16 690.482H-46.2543C-46.839 690.482 -47.3151 689.911 -47.3151 689.215V666.67C-47.3151 665.974 -46.8358 665.403 -46.2543 665.403H16.16C16.7447 665.403 17.2207 665.974 17.2207 666.67V689.215C17.2207 689.911 16.7415 690.482 16.16 690.482ZM-45.1936 687.952H15.0961V667.937H-45.1936V687.952Z" fill="#507586"/>
<path d="M111.25 263.062V286.376L142.871 282.597V245.879L111.25 263.062Z" fill="#507586"/>
<path d="M220.241 296.086H118.729V698.815H220.241V296.086Z" fill="white"/>
<path d="M149.88 305.576H126.694V689.325H149.88V305.576Z" fill="#96BCCD"/>
<path d="M149.874 690.592H126.688C126.103 690.592 125.627 690.021 125.627 689.325V305.576C125.627 304.879 126.106 304.309 126.688 304.309H149.874C150.459 304.309 150.938 304.879 150.938 305.576V689.325C150.938 690.021 150.459 690.592 149.874 690.592ZM127.749 688.062H148.81V306.839H127.749V688.062Z" fill="#507586"/>
<path d="M181.076 305.576H157.89V689.325H181.076V305.576Z" fill="#96BCCD"/>
<path d="M181.07 690.592H157.884C157.299 690.592 156.82 690.021 156.82 689.325V305.576C156.82 304.879 157.299 304.309 157.884 304.309H181.07C181.655 304.309 182.134 304.879 182.134 305.576V689.325C182.134 690.021 181.655 690.592 181.07 690.592ZM158.945 688.062H180.006V306.839H158.945V688.062Z" fill="#507586"/>
<path d="M212.269 305.576H189.083V689.325H212.269V305.576Z" fill="#96BCCD"/>
<path d="M212.263 690.592H189.077C188.492 690.592 188.016 690.021 188.016 689.325V305.576C188.016 304.879 188.495 304.309 189.077 304.309H212.263C212.847 304.309 213.327 304.879 213.327 305.576V689.325C213.327 690.021 212.847 690.592 212.263 690.592ZM190.137 688.062H211.199V306.839H190.137V688.062Z" fill="#507586"/>
<path d="M90.3096 304V698.815H118.729V296.086L90.3096 304Z" fill="#507586"/>
<path d="M214.078 282.597H124.883V296.086H214.078V282.597Z" fill="#96BCCD"/>
<path d="M196.083 245.879H142.87V282.593H196.083V245.879Z" fill="white"/>
<path d="M100.559 289.34V301.147L124.883 296.086V282.597L100.559 289.34Z" fill="#507586"/>
<path d="M220.231 294.819H215.138V282.594C215.138 281.897 214.662 281.326 214.077 281.326H197.154V245.875C197.154 245.179 196.678 244.608 196.093 244.608C142.513 244.608 142.778 244.528 142.436 244.719L110.818 261.902C110.441 262.107 110.195 262.56 110.195 263.055V285.364L100.329 288.099C99.8435 288.233 99.5048 288.746 99.5048 289.332V300.135L90.0827 302.76C89.5971 302.893 89.2584 303.411 89.2584 303.993V698.807C89.2584 699.504 89.7377 700.074 90.3192 700.074H220.237C220.822 700.074 221.301 699.504 221.301 698.807V296.086C221.301 295.39 220.822 294.819 220.237 294.819H220.231ZM213.014 283.861V294.819H125.95V283.861H213.014ZM143.938 247.146H195.026V281.33H143.938V247.146ZM112.31 263.877L141.803 247.846V281.326C125.164 281.326 125.25 281.296 124.56 281.38L112.307 284.778V263.873L112.31 263.877ZM101.626 290.344L123.816 284.195V294.823C116.857 294.823 121.886 293.906 101.626 299.552V290.344ZM91.3735 305.005L117.656 297.684V697.548H91.3735V305.005ZM219.167 697.548H119.793V297.353H219.167V697.548Z" fill="#507586"/>
<path d="M355.808 336.24L335.88 277.567H310.755L290.828 336.24H285.875V698.815H360.766V336.24H355.808Z" fill="white"/>
<path d="M309.026 347.012H294.313V364.534H309.026V347.012Z" fill="#96BCCD"/>
<path d="M309.026 365.801H294.313C293.729 365.801 293.25 365.231 293.25 364.538V347.016C293.25 346.32 293.729 345.749 294.313 345.749H309.026C309.611 345.749 310.09 346.32 310.09 347.016V364.538C310.09 365.234 309.611 365.801 309.026 365.801ZM295.374 363.271H307.962V348.279H295.374V363.271Z" fill="#507586"/>
<path d="M330.673 347.012H315.96V364.534H330.673V347.012Z" fill="#96BCCD"/>
<path d="M330.676 365.801H315.963C315.378 365.801 314.899 365.231 314.899 364.538V347.016C314.899 346.32 315.378 345.749 315.963 345.749H330.676C331.261 345.749 331.737 346.32 331.737 347.016V364.538C331.737 365.234 331.257 365.801 330.676 365.801ZM317.024 363.271H329.612V348.279H317.024V363.271Z" fill="#507586"/>
<path d="M352.319 347.012H337.606V364.534H352.319V347.012Z" fill="#96BCCD"/>
<path d="M352.322 365.801H337.609C337.024 365.801 336.548 365.231 336.548 364.538V347.016C336.548 346.32 337.027 345.749 337.609 345.749H352.322C352.907 345.749 353.386 346.32 353.386 347.016V364.538C353.386 365.234 352.907 365.801 352.322 365.801ZM338.67 363.271H351.258V348.279H338.67V363.271Z" fill="#507586"/>
<path d="M309.026 375.306H294.313V392.828H309.026V375.306Z" fill="#96BCCD"/>
<path d="M309.026 394.095H294.313C293.729 394.095 293.25 393.524 293.25 392.828V375.306C293.25 374.61 293.729 374.039 294.313 374.039H309.026C309.611 374.039 310.09 374.61 310.09 375.306V392.828C310.09 393.524 309.611 394.095 309.026 394.095ZM295.374 391.565H307.962V376.573H295.374V391.565Z" fill="#507586"/>
<path d="M330.673 375.306H315.96V392.828H330.673V375.306Z" fill="#96BCCD"/>
<path d="M330.676 394.095H315.963C315.378 394.095 314.899 393.524 314.899 392.828V375.306C314.899 374.61 315.378 374.039 315.963 374.039H330.676C331.261 374.039 331.737 374.61 331.737 375.306V392.828C331.737 393.524 331.257 394.095 330.676 394.095ZM317.024 391.565H329.612V376.573H317.024V391.565Z" fill="#507586"/>
<path d="M352.319 375.306H337.606V392.828H352.319V375.306Z" fill="#96BCCD"/>
<path d="M352.322 394.095H337.609C337.024 394.095 336.548 393.524 336.548 392.828V375.306C336.548 374.61 337.027 374.039 337.609 374.039H352.322C352.907 374.039 353.386 374.61 353.386 375.306V392.828C353.386 393.524 352.907 394.095 352.322 394.095ZM338.67 391.565H351.258V376.573H338.67V391.565Z" fill="#507586"/>
<path d="M309.026 403.596H294.313V421.118H309.026V403.596Z" fill="#96BCCD"/>
<path d="M309.026 422.385H294.313C293.729 422.385 293.25 421.815 293.25 421.118V403.596C293.25 402.9 293.729 402.333 294.313 402.333H309.026C309.611 402.333 310.09 402.904 310.09 403.596V421.118C310.09 421.815 309.611 422.385 309.026 422.385ZM295.374 419.855H307.962V404.863H295.374V419.855Z" fill="#507586"/>
<path d="M330.673 403.596H315.96V421.118H330.673V403.596Z" fill="#96BCCD"/>
<path d="M330.676 422.385H315.963C315.378 422.385 314.899 421.815 314.899 421.118V403.596C314.899 402.9 315.378 402.333 315.963 402.333H330.676C331.261 402.333 331.737 402.904 331.737 403.596V421.118C331.737 421.815 331.257 422.385 330.676 422.385ZM317.024 419.855H329.612V404.863H317.024V419.855Z" fill="#507586"/>
<path d="M352.319 403.596H337.606V421.118H352.319V403.596Z" fill="#96BCCD"/>
<path d="M352.322 422.385H337.609C337.024 422.385 336.548 421.815 336.548 421.118V403.596C336.548 402.9 337.027 402.333 337.609 402.333H352.322C352.907 402.333 353.386 402.904 353.386 403.596V421.118C353.386 421.815 352.907 422.385 352.322 422.385ZM338.67 419.855H351.258V404.863H338.67V419.855Z" fill="#507586"/>
<path d="M309.026 431.89H294.313V449.412H309.026V431.89Z" fill="#96BCCD"/>
<path d="M309.026 450.679H294.313C293.729 450.679 293.25 450.109 293.25 449.412V431.89C293.25 431.194 293.729 430.623 294.313 430.623H309.026C309.611 430.623 310.09 431.194 310.09 431.89V449.412C310.09 450.109 309.611 450.679 309.026 450.679ZM295.374 448.149H307.962V433.157H295.374V448.149Z" fill="#507586"/>
<path d="M330.673 431.89H315.96V449.412H330.673V431.89Z" fill="#96BCCD"/>
<path d="M330.676 450.679H315.963C315.378 450.679 314.899 450.109 314.899 449.412V431.89C314.899 431.194 315.378 430.623 315.963 430.623H330.676C331.261 430.623 331.737 431.194 331.737 431.89V449.412C331.737 450.109 331.257 450.679 330.676 450.679ZM317.024 448.149H329.612V433.157H317.024V448.149Z" fill="#507586"/>
<path d="M352.319 431.89H337.606V449.412H352.319V431.89Z" fill="#96BCCD"/>
<path d="M352.322 450.679H337.609C337.024 450.679 336.548 450.109 336.548 449.412V431.89C336.548 431.194 337.027 430.623 337.609 430.623H352.322C352.907 430.623 353.386 431.194 353.386 431.89V449.412C353.386 450.109 352.907 450.679 352.322 450.679ZM338.67 448.149H351.258V433.157H338.67V448.149Z" fill="#507586"/>
<path d="M309.026 460.184H294.313V477.706H309.026V460.184Z" fill="#96BCCD"/>
<path d="M309.026 478.973H294.313C293.729 478.973 293.25 478.403 293.25 477.706V460.184C293.25 459.488 293.729 458.917 294.313 458.917H309.026C309.611 458.917 310.09 459.488 310.09 460.184V477.706C310.09 478.403 309.611 478.973 309.026 478.973ZM295.374 476.443H307.962V461.451H295.374V476.443Z" fill="#507586"/>
<path d="M330.673 460.184H315.96V477.706H330.673V460.184Z" fill="#96BCCD"/>
<path d="M330.676 478.973H315.963C315.378 478.973 314.899 478.403 314.899 477.706V460.184C314.899 459.488 315.378 458.917 315.963 458.917H330.676C331.261 458.917 331.737 459.488 331.737 460.184V477.706C331.737 478.403 331.257 478.973 330.676 478.973ZM317.024 476.443H329.612V461.451H317.024V476.443Z" fill="#507586"/>
<path d="M352.319 460.184H337.606V477.706H352.319V460.184Z" fill="#96BCCD"/>
<path d="M352.322 478.973H337.609C337.024 478.973 336.548 478.403 336.548 477.706V460.184C336.548 459.488 337.027 458.917 337.609 458.917H352.322C352.907 458.917 353.386 459.488 353.386 460.184V477.706C353.386 478.403 352.907 478.973 352.322 478.973ZM338.67 476.443H351.258V461.451H338.67V476.443Z" fill="#507586"/>
<path d="M309.026 488.478H294.313V506H309.026V488.478Z" fill="#96BCCD"/>
<path d="M309.026 507.267H294.313C293.729 507.267 293.25 506.697 293.25 506.004V488.482C293.25 487.786 293.729 487.215 294.313 487.215H309.026C309.611 487.215 310.09 487.786 310.09 488.482V506.004C310.09 506.7 309.611 507.267 309.026 507.267ZM295.374 504.737H307.962V489.745H295.374V504.737Z" fill="#507586"/>
<path d="M330.673 488.478H315.96V506H330.673V488.478Z" fill="#96BCCD"/>
<path d="M330.676 507.267H315.963C315.378 507.267 314.899 506.697 314.899 506.004V488.482C314.899 487.786 315.378 487.215 315.963 487.215H330.676C331.261 487.215 331.737 487.786 331.737 488.482V506.004C331.737 506.7 331.257 507.267 330.676 507.267ZM317.024 504.737H329.612V489.745H317.024V504.737Z" fill="#507586"/>
<path d="M352.319 488.478H337.606V506H352.319V488.478Z" fill="#96BCCD"/>
<path d="M352.322 507.267H337.609C337.024 507.267 336.548 506.697 336.548 506.004V488.482C336.548 487.786 337.027 487.215 337.609 487.215H352.322C352.907 487.215 353.386 487.786 353.386 488.482V506.004C353.386 506.7 352.907 507.267 352.322 507.267ZM338.67 504.737H351.258V489.745H338.67V504.737Z" fill="#507586"/>
<path d="M309.026 516.772H294.313V534.294H309.026V516.772Z" fill="#96BCCD"/>
<path d="M309.026 535.561H294.313C293.729 535.561 293.25 534.991 293.25 534.294V516.772C293.25 516.076 293.729 515.505 294.313 515.505H309.026C309.611 515.505 310.09 516.076 310.09 516.772V534.294C310.09 534.991 309.611 535.561 309.026 535.561ZM295.374 533.031H307.962V518.039H295.374V533.031Z" fill="#507586"/>
<path d="M330.673 516.772H315.96V534.294H330.673V516.772Z" fill="#96BCCD"/>
<path d="M330.676 535.561H315.963C315.378 535.561 314.899 534.991 314.899 534.294V516.772C314.899 516.076 315.378 515.505 315.963 515.505H330.676C331.261 515.505 331.737 516.076 331.737 516.772V534.294C331.737 534.991 331.257 535.561 330.676 535.561ZM317.024 533.031H329.612V518.039H317.024V533.031Z" fill="#507586"/>
<path d="M352.319 516.772H337.606V534.294H352.319V516.772Z" fill="#96BCCD"/>
<path d="M352.322 535.561H337.609C337.024 535.561 336.548 534.991 336.548 534.294V516.772C336.548 516.076 337.027 515.505 337.609 515.505H352.322C352.907 515.505 353.386 516.076 353.386 516.772V534.294C353.386 534.991 352.907 535.561 352.322 535.561ZM338.67 533.031H351.258V518.039H338.67V533.031Z" fill="#507586"/>
<path d="M309.026 545.066H294.313V562.588H309.026V545.066Z" fill="#96BCCD"/>
<path d="M309.026 563.855H294.313C293.729 563.855 293.25 563.285 293.25 562.588V545.066C293.25 544.37 293.729 543.799 294.313 543.799H309.026C309.611 543.799 310.09 544.37 310.09 545.066V562.588C310.09 563.285 309.611 563.855 309.026 563.855ZM295.374 561.325H307.962V546.333H295.374V561.325Z" fill="#507586"/>
<path d="M330.673 545.066H315.96V562.588H330.673V545.066Z" fill="#96BCCD"/>
<path d="M330.676 563.855H315.963C315.378 563.855 314.899 563.285 314.899 562.588V545.066C314.899 544.37 315.378 543.799 315.963 543.799H330.676C331.261 543.799 331.737 544.37 331.737 545.066V562.588C331.737 563.285 331.257 563.855 330.676 563.855ZM317.024 561.325H329.612V546.333H317.024V561.325Z" fill="#507586"/>
<path d="M352.319 545.066H337.606V562.588H352.319V545.066Z" fill="#96BCCD"/>
<path d="M352.322 563.855H337.609C337.024 563.855 336.548 563.285 336.548 562.588V545.066C336.548 544.37 337.027 543.799 337.609 543.799H352.322C352.907 543.799 353.386 544.37 353.386 545.066V562.588C353.386 563.285 352.907 563.855 352.322 563.855ZM338.67 561.325H351.258V546.333H338.67V561.325Z" fill="#507586"/>
<path d="M309.026 573.36H294.313V590.882H309.026V573.36Z" fill="#96BCCD"/>
<path d="M309.026 592.149H294.313C293.729 592.149 293.25 591.579 293.25 590.882V573.36C293.25 572.664 293.729 572.093 294.313 572.093H309.026C309.611 572.093 310.09 572.664 310.09 573.36V590.882C310.09 591.579 309.611 592.149 309.026 592.149ZM295.374 589.619H307.962V574.627H295.374V589.619Z" fill="#507586"/>
<path d="M330.673 573.36H315.96V590.882H330.673V573.36Z" fill="#96BCCD"/>
<path d="M330.676 592.149H315.963C315.378 592.149 314.899 591.579 314.899 590.882V573.36C314.899 572.664 315.378 572.093 315.963 572.093H330.676C331.261 572.093 331.737 572.664 331.737 573.36V590.882C331.737 591.579 331.257 592.149 330.676 592.149ZM317.024 589.619H329.612V574.627H317.024V589.619Z" fill="#507586"/>
<path d="M352.319 573.36H337.606V590.882H352.319V573.36Z" fill="#96BCCD"/>
<path d="M352.322 592.149H337.609C337.024 592.149 336.548 591.579 336.548 590.882V573.36C336.548 572.664 337.027 572.093 337.609 572.093H352.322C352.907 572.093 353.386 572.664 353.386 573.36V590.882C353.386 591.579 352.907 592.149 352.322 592.149ZM338.67 589.619H351.258V574.627H338.67V589.619Z" fill="#507586"/>
<path d="M309.026 601.654H294.313V619.176H309.026V601.654Z" fill="#96BCCD"/>
<path d="M309.026 620.443H294.313C293.729 620.443 293.25 619.873 293.25 619.18V601.658C293.25 600.962 293.729 600.395 294.313 600.395H309.026C309.611 600.395 310.09 600.966 310.09 601.658V619.18C310.09 619.876 309.611 620.443 309.026 620.443ZM295.374 617.913H307.962V602.921H295.374V617.913Z" fill="#507586"/>
<path d="M330.673 601.654H315.96V619.176H330.673V601.654Z" fill="#96BCCD"/>
<path d="M330.676 620.443H315.963C315.378 620.443 314.899 619.873 314.899 619.18V601.658C314.899 600.962 315.378 600.395 315.963 600.395H330.676C331.261 600.395 331.737 600.966 331.737 601.658V619.18C331.737 619.876 331.257 620.443 330.676 620.443ZM317.024 617.913H329.612V602.921H317.024V617.913Z" fill="#507586"/>
<path d="M352.319 601.654H337.606V619.176H352.319V601.654Z" fill="#96BCCD"/>
<path d="M352.322 620.443H337.609C337.024 620.443 336.548 619.873 336.548 619.18V601.658C336.548 600.962 337.027 600.395 337.609 600.395H352.322C352.907 600.395 353.386 600.966 353.386 601.658V619.18C353.386 619.876 352.907 620.443 352.322 620.443ZM338.67 617.913H351.258V602.921H338.67V617.913Z" fill="#507586"/>
<path d="M309.026 629.948H294.313V647.47H309.026V629.948Z" fill="#96BCCD"/>
<path d="M309.026 648.737H294.313C293.729 648.737 293.25 648.167 293.25 647.47V629.948C293.25 629.252 293.729 628.681 294.313 628.681H309.026C309.611 628.681 310.09 629.252 310.09 629.948V647.47C310.09 648.167 309.611 648.737 309.026 648.737ZM295.374 646.207H307.962V631.215H295.374V646.207Z" fill="#507586"/>
<path d="M330.673 629.948H315.96V647.47H330.673V629.948Z" fill="#96BCCD"/>
<path d="M330.676 648.737H315.963C315.378 648.737 314.899 648.167 314.899 647.47V629.948C314.899 629.252 315.378 628.681 315.963 628.681H330.676C331.261 628.681 331.737 629.252 331.737 629.948V647.47C331.737 648.167 331.257 648.737 330.676 648.737ZM317.024 646.207H329.612V631.215H317.024V646.207Z" fill="#507586"/>
<path d="M352.319 629.948H337.606V647.47H352.319V629.948Z" fill="#96BCCD"/>
<path d="M352.322 648.737H337.609C337.024 648.737 336.548 648.167 336.548 647.47V629.948C336.548 629.252 337.027 628.681 337.609 628.681H352.322C352.907 628.681 353.386 629.252 353.386 629.948V647.47C353.386 648.167 352.907 648.737 352.322 648.737ZM338.67 646.207H351.258V631.215H338.67V646.207Z" fill="#507586"/>
<path d="M335.075 665.856H311.557V698.815H335.075V665.856Z" fill="#96BCCD"/>
<path d="M360.766 334.977H356.52L336.855 277.099C336.695 276.623 336.305 276.308 335.871 276.308H320.746L319.528 236.454C319.516 235.91 319.135 235.472 318.679 235.472H317.145C316.688 235.472 316.314 235.906 316.295 236.454L315.078 276.308H310.8C310.295 276.277 311.515 274.824 290.253 291.364C289.831 291.691 290.086 291.33 269.792 341.906L261.814 345.387C261.395 345.57 261.117 346.042 261.117 346.575V698.815C261.117 699.511 261.597 700.082 262.178 700.082H360.76C361.345 700.082 361.824 699.511 361.824 698.815V336.24C361.824 335.544 361.345 334.973 360.76 334.973L360.766 334.977ZM311.483 278.842H335.168L354.239 334.977H292.416L311.483 278.842ZM334.011 697.552H312.618V667.123H334.011V697.552ZM359.702 697.552H336.136V665.86C336.136 665.163 335.657 664.593 335.072 664.593H311.554C310.969 664.593 310.493 665.163 310.493 665.86V697.552H286.933V337.507H359.699V697.552H359.702Z" fill="#507586"/>
<path d="M383.029 499.003H231.938V698.815H383.029V499.003Z" fill="#4799BE"/>
<path d="M383.029 700.082H231.937C231.353 700.082 230.874 699.511 230.874 698.815V499.003C230.874 498.307 231.353 497.736 231.937 497.736H383.029C383.614 497.736 384.093 498.307 384.093 499.003V698.815C384.093 699.511 383.614 700.082 383.029 700.082ZM232.998 697.552H381.965V500.27H232.998V697.552Z" fill="#507586"/>
<path d="M273.562 499.003H231.938V698.815H273.562V499.003Z" fill="#507586"/>
<path d="M248.047 677.632H257.462C257.948 677.632 258.344 678.1 258.344 678.683V698.815H247.162V678.683C247.162 678.104 247.558 677.632 248.047 677.632Z" fill="#4799BE"/>
<path d="M324.174 510.524H283.658V532.358H324.174V510.524Z" fill="#96BCCD"/>
<path d="M252.75 510.524H239.241V532.358H252.75V510.524Z" fill="#96BCCD"/>
<path d="M266.261 510.524H252.753V532.358H266.261V510.524Z" fill="#96BCCD"/>
<path d="M252.75 543.27H239.241V565.103H252.75V543.27Z" fill="#96BCCD"/>
<path d="M266.261 543.27H252.753V565.103H266.261V543.27Z" fill="#96BCCD"/>
<path d="M252.75 576.016H239.241V597.849H252.75V576.016Z" fill="#96BCCD"/>
<path d="M266.261 576.016H252.753V597.849H266.261V576.016Z" fill="#96BCCD"/>
<path d="M252.75 608.762H239.241V630.595H252.75V608.762Z" fill="#96BCCD"/>
<path d="M266.261 608.762H252.753V630.595H266.261V608.762Z" fill="#96BCCD"/>
<path d="M252.75 641.508H239.241V663.341H252.75V641.508Z" fill="#96BCCD"/>
<path d="M266.261 641.508H252.753V663.341H266.261V641.508Z" fill="#96BCCD"/>
<path d="M372.294 510.524H331.778V532.358H372.294V510.524Z" fill="#96BCCD"/>
<path d="M324.174 543.27H283.658V565.103H324.174V543.27Z" fill="#96BCCD"/>
<path d="M372.294 543.27H331.778V565.103H372.294V543.27Z" fill="#96BCCD"/>
<path d="M324.174 576.016H283.658V597.849H324.174V576.016Z" fill="#96BCCD"/>
<path d="M372.294 576.016H331.778V597.849H372.294V576.016Z" fill="#96BCCD"/>
<path d="M324.174 608.762H283.658V630.595H324.174V608.762Z" fill="#96BCCD"/>
<path d="M372.294 608.762H331.778V630.595H372.294V608.762Z" fill="#96BCCD"/>
<path d="M324.174 641.508H283.658V663.341H324.174V641.508Z" fill="#96BCCD"/>
<path d="M372.294 641.508H331.778V663.341H372.294V641.508Z" fill="#96BCCD"/>
<path d="M258.344 700.082H247.155C246.571 700.082 246.091 699.511 246.091 698.815V678.683C246.091 677.408 246.96 676.365 248.037 676.365H257.459C258.529 676.365 259.405 677.4 259.405 678.683V698.815C259.405 699.511 258.926 700.082 258.344 700.082ZM248.219 697.552H257.283V678.896H248.219V697.552Z" fill="#507586"/>
<path d="M266.261 509.261H239.251C238.666 509.261 238.187 509.832 238.187 510.528V532.361C238.187 533.058 238.666 533.628 239.251 533.628H266.261C266.846 533.628 267.325 533.058 267.325 532.361V510.528C267.325 509.832 266.849 509.261 266.261 509.261ZM240.312 511.792H251.692V531.094H240.312V511.792ZM265.198 531.094H253.817V511.792H265.198V531.094Z" fill="#507586"/>
<path d="M266.261 542.007H239.251C238.666 542.007 238.187 542.578 238.187 543.27V565.103C238.187 565.8 238.666 566.37 239.251 566.37H266.261C266.846 566.37 267.325 565.8 267.325 565.103V543.27C267.325 542.574 266.849 542.007 266.261 542.007ZM240.312 544.537H251.692V563.84H240.312V544.537ZM265.198 563.84H253.817V544.537H265.198V563.84Z" fill="#507586"/>
<path d="M266.261 574.753H239.251C238.666 574.753 238.187 575.324 238.187 576.02V597.853C238.187 598.549 238.666 599.12 239.251 599.12H266.261C266.846 599.12 267.325 598.549 267.325 597.853V576.02C267.325 575.324 266.849 574.753 266.261 574.753ZM240.312 577.283H251.692V596.586H240.312V577.283ZM265.198 596.586H253.817V577.283H265.198V596.586Z" fill="#507586"/>
<path d="M266.261 607.499H239.251C238.666 607.499 238.187 608.069 238.187 608.762V630.595C238.187 631.291 238.666 631.858 239.251 631.858H266.261C266.846 631.858 267.325 631.287 267.325 630.595V608.762C267.325 608.066 266.849 607.499 266.261 607.499ZM240.312 610.029H251.692V629.332H240.312V610.029ZM265.198 629.332H253.817V610.029H265.198V629.332Z" fill="#507586"/>
<path d="M266.261 640.245H239.251C238.666 640.245 238.187 640.815 238.187 641.512V663.345C238.187 664.041 238.666 664.612 239.251 664.612H266.261C266.846 664.612 267.325 664.041 267.325 663.345V641.512C267.325 640.815 266.849 640.245 266.261 640.245ZM240.312 642.775H251.692V662.078H240.312V642.775ZM265.198 662.078H253.817V642.775H265.198V662.078Z" fill="#507586"/>
<path d="M283.658 533.625H324.174C324.759 533.625 325.238 533.054 325.238 532.358V510.524C325.238 509.828 324.759 509.257 324.174 509.257H283.658C283.073 509.257 282.597 509.828 282.597 510.524V532.358C282.597 533.054 283.077 533.625 283.658 533.625ZM323.113 531.094H311.733V511.792H323.113V531.094ZM309.608 531.094H298.227V511.792H309.608V531.094ZM284.722 511.792H296.103V531.094H284.722V511.792Z" fill="#507586"/>
<path d="M372.294 509.261H331.778C331.193 509.261 330.714 509.832 330.714 510.528V532.361C330.714 533.058 331.193 533.628 331.778 533.628H372.294C372.879 533.628 373.355 533.058 373.355 532.361V510.528C373.355 509.832 372.875 509.261 372.294 509.261ZM332.839 511.792H344.219V531.094H332.839V511.792ZM346.344 511.792H357.725V531.094H346.344V511.792ZM371.23 531.094H359.849V511.792H371.23V531.094Z" fill="#507586"/>
<path d="M283.658 566.37H324.174C324.759 566.37 325.238 565.8 325.238 565.103V543.27C325.238 542.574 324.759 542.007 324.174 542.007H283.658C283.073 542.007 282.597 542.578 282.597 543.27V565.103C282.597 565.8 283.077 566.37 283.658 566.37ZM323.113 563.84H311.733V544.537H323.113V563.84ZM309.608 563.84H298.227V544.537H309.608V563.84ZM284.722 544.537H296.103V563.84H284.722V544.537Z" fill="#507586"/>
<path d="M372.294 542.007H331.778C331.193 542.007 330.714 542.578 330.714 543.27V565.103C330.714 565.8 331.193 566.37 331.778 566.37H372.294C372.879 566.37 373.355 565.8 373.355 565.103V543.27C373.355 542.574 372.875 542.007 372.294 542.007ZM332.839 544.537H344.219V563.84H332.839V544.537ZM346.344 544.537H357.725V563.84H346.344V544.537ZM371.23 563.84H359.849V544.537H371.23V563.84Z" fill="#507586"/>
<path d="M283.658 599.116H324.174C324.759 599.116 325.238 598.545 325.238 597.849V576.016C325.238 575.32 324.759 574.749 324.174 574.749H283.658C283.073 574.749 282.597 575.32 282.597 576.016V597.849C282.597 598.545 283.077 599.116 283.658 599.116ZM323.113 596.586H311.733V577.283H323.113V596.586ZM309.608 596.586H298.227V577.283H309.608V596.586ZM284.722 577.283H296.103V596.586H284.722V577.283Z" fill="#507586"/>
<path d="M372.294 574.753H331.778C331.193 574.753 330.714 575.324 330.714 576.02V597.853C330.714 598.549 331.193 599.12 331.778 599.12H372.294C372.879 599.12 373.355 598.549 373.355 597.853V576.02C373.355 575.324 372.875 574.753 372.294 574.753ZM332.839 577.283H344.219V596.586H332.839V577.283ZM346.344 577.283H357.725V596.586H346.344V577.283ZM371.23 596.586H359.849V577.283H371.23V596.586Z" fill="#507586"/>
<path d="M283.658 631.862H324.174C324.759 631.862 325.238 631.291 325.238 630.599V608.766C325.238 608.069 324.759 607.502 324.174 607.502H283.658C283.073 607.502 282.597 608.073 282.597 608.766V630.599C282.597 631.295 283.077 631.862 283.658 631.862ZM323.113 629.332H311.733V610.029H323.113V629.332ZM309.608 629.332H298.227V610.029H309.608V629.332ZM284.722 610.029H296.103V629.332H284.722V610.029Z" fill="#507586"/>
<path d="M372.294 607.499H331.778C331.193 607.499 330.714 608.069 330.714 608.762V630.595C330.714 631.291 331.193 631.858 331.778 631.858H372.294C372.879 631.858 373.355 631.287 373.355 630.595V608.762C373.355 608.066 372.875 607.499 372.294 607.499ZM332.839 610.029H344.219V629.332H332.839V610.029ZM346.344 610.029H357.725V629.332H346.344V610.029ZM371.23 629.332H359.849V610.029H371.23V629.332Z" fill="#507586"/>
<path d="M325.235 663.341V641.508C325.235 640.811 324.755 640.241 324.171 640.241H283.655C283.07 640.241 282.594 640.811 282.594 641.508V663.341C282.594 664.037 283.073 664.608 283.655 664.608H324.171C324.755 664.608 325.235 664.037 325.235 663.341ZM284.719 642.775H296.099V662.078H284.719V642.775ZM298.224 642.775H309.605V662.078H298.224V642.775ZM323.11 662.078H311.729V642.775H323.11V662.078Z" fill="#507586"/>
<path d="M372.294 640.245H331.778C331.193 640.245 330.714 640.815 330.714 641.512V663.345C330.714 664.041 331.193 664.612 331.778 664.612H372.294C372.879 664.612 373.355 664.041 373.355 663.345V641.512C373.355 640.815 372.875 640.245 372.294 640.245ZM332.839 642.775H344.219V662.078H332.839V642.775ZM346.344 642.775H357.725V662.078H346.344V642.775ZM371.23 662.078H359.849V642.775H371.23V662.078Z" fill="#507586"/>
<path d="M337.187 677.632H319.925C319.18 677.632 318.583 678.352 318.583 679.231V698.819H338.529V679.231C338.529 678.344 337.925 677.632 337.187 677.632Z" fill="#507586"/>
<path d="M483.042 170.852C493.531 170.852 502.033 180.779 502.033 193.024C502.033 205.268 493.531 215.196 483.042 215.196C472.553 215.196 464.051 205.268 464.051 193.024C464.051 180.779 472.553 170.852 483.042 170.852Z" fill="#F3DB84"/>
<path d="M515.976 698.815V269.493L489.927 237.356V698.815H515.976Z" fill="white"/>
<path d="M516.74 268.614L490.653 236.42C490.106 235.83 490.585 235.537 396.506 244.487C395.956 244.54 395.521 245.088 395.521 245.754V698.815C395.521 699.511 396.001 700.082 396.585 700.082H515.979C516.564 700.082 517.04 699.511 517.04 698.815L516.74 268.614ZM514.912 697.548H490.988V240.488L514.912 270.007V697.548Z" fill="#507586"/>
<path d="M403.221 690.908V253.093L483.288 245.879V690.908H403.221Z" fill="#96BCCD"/>
<path d="M484.01 244.954C483.467 244.365 483.895 244.14 403.142 251.826C402.592 251.88 402.157 252.428 402.157 253.093V690.908C402.157 691.604 402.637 692.175 403.221 692.175H483.285C483.87 692.175 484.349 691.604 484.349 690.908L484.01 244.954ZM444.316 250.658L462.869 248.988V689.641H444.316V250.658ZM442.191 689.641H423.637V252.519L442.191 250.848V689.641ZM404.282 254.262L421.513 252.713V689.645H404.282V254.262ZM482.221 689.641H464.99V248.798L482.221 247.249V689.641Z" fill="#507586"/>
<path d="M108.55 138.472C110.643 138.472 112.227 136.265 111.975 133.852C110.032 115.162 95.7666 107.187 74.7659 111.323C76.9385 88.6984 60.6567 77.7133 46.0013 84.8249C45.4581 59.6168 21.5787 53.8027 14.5209 75.7766C-3.93019 55.0964 -29.0365 74.2736 -21.8382 102.275C-45.43 87.9069 -65.8301 112.685 -57.0503 136.033C-56.4943 137.513 -55.2579 138.468 -53.8968 138.468L108.55 138.472Z" fill="white"/>
<path d="M108.55 139.735H-53.9032C-55.6828 139.735 -57.2994 138.487 -58.0279 136.55C-66.7694 113.29 -47.6186 87.6368 -23.4548 99.9764C-28.6371 72.6184 -4.41897 54.7768 14.1152 73.642C21.9014 53.1711 45.2186 58.1709 46.9758 83.0365C62.0818 76.8306 77.1813 88.5576 75.9385 109.82C94.0541 106.65 110.796 112.457 113.023 133.693C113.362 136.908 111.246 139.735 108.55 139.735ZM-56.0885 135.519C-55.7051 136.539 -54.8457 137.205 -53.9095 137.205H108.534C109.994 137.205 111.08 135.667 110.911 134.001C108.837 113.701 92.1978 109.188 74.9225 112.563C74.2036 112.704 73.6221 111.974 73.6956 111.171C75.6222 89.7409 60.5641 79.1098 46.3847 85.9854C45.6882 86.3241 44.9406 85.7229 44.9246 84.8477C44.4773 61.0398 22.1315 55.5074 15.5019 76.2218C15.2335 77.0627 14.3261 77.31 13.783 76.6974C-3.79914 56.919 -27.784 75.1183 -20.8381 101.906C-20.5569 102.986 -21.5122 103.896 -22.3397 103.401C-44.8996 89.8056 -64.5489 113.047 -56.0917 135.523L-56.0885 135.519Z" fill="#507586"/>
<path d="M219.349 178.348C219.835 179.992 221.142 181.099 222.602 181.099H415.149C416.577 181.099 417.858 180.049 418.369 178.458C428.395 147.295 403.257 124.511 378.118 138.365C385.988 115.866 373.623 90.4449 348.338 107.841C343.843 71.0394 305.637 77.0665 304.515 107.841C284.291 91.1145 258.447 108.515 262.942 140.625C237.292 136.729 210.323 147.691 219.349 178.344V178.348Z" fill="white"/>
<path d="M415.142 182.366H222.605C220.691 182.366 218.982 180.92 218.349 178.766C209.387 148.266 234.8 135.644 261.689 139.179C258.236 107.731 283.208 90.6009 303.595 105.619C306.407 75.7157 343.619 70.4306 349.14 105.874C359.466 99.2801 368.846 99.1773 375.048 105.661C381.297 112.194 383.182 124.378 379.968 136.059C405.359 124.298 429.379 147.786 419.363 178.919C418.698 180.981 417.005 182.366 415.145 182.366H415.142ZM253.009 141.112C230.921 141.112 212.953 152.695 220.346 177.929C220.678 179.067 221.589 179.836 222.595 179.836H415.142C416.126 179.836 417.021 179.101 417.372 178.009C427.053 147.973 402.828 126.082 378.556 139.514C377.681 139.997 376.76 138.94 377.128 137.878C381.122 126.364 379.716 113.903 373.642 107.552C367.818 101.464 358.999 101.909 348.862 108.937C348.213 109.386 347.382 108.899 347.274 108.02C342.893 72.8011 306.729 78.6151 305.563 107.895C305.525 108.888 304.582 109.439 303.895 108.876C284.415 92.8496 259.702 109.268 263.971 140.412C264.025 140.808 263.923 141.207 263.686 141.497C262.827 142.535 261.836 141.116 253.009 141.116V141.112Z" fill="#507586"/>
</g>
</svg>
